# xmcd
#
# Track frame offsets: 
#        150
#        35286
#        55950
#        88561
#        128794
#        150715
#        196556
#        228170
#
# Disc length: 3565 seconds
#
# Revision: 0
# Processed by: cddbd v1.5.2PL0 Copyright (c) Steve Scherf et al.
# Submitted via: ExactAudioCopy v1.3
#
DISCID=560deb08
DTITLE=Harry Manx - Harry Manx and Friends - Live At The Glenn Gould Stu
DTITLE=dio
DYEAR=2007
DGENRE=Blues
TTITLE0=Point Of Purchase
TTITLE1=Harry Manx And Friends - Take This Hammer
TTITLE2=Harry Manx And Friends - Single Spark
TTITLE3=Harry Manx And Friends - Voodoo Child
TTITLE4=Harry Manx And Friends - Goodtime Charlie
TTITLE5=Harry Manx And Friends - Can't Be Satisfied
TTITLE6=Harry Manx And Friends - Samidha's Tune
TTITLE7=Harry Manx And Friends - Tijuana 
EXTD=
EXTT0=
EXTT1=
EXTT2=
EXTT3=
EXTT4=
EXTT5=
EXTT6=
EXTT7=
PLAYORDER=
